<!-- Generated by IcoMoon.io -->
<svg version="1.1" xmlns="http://www.w3.org/2000/svg" width="14" height="12" viewBox="0 0 14 12">
<title>american_express</title>
<path fill="#0079c4" d="M13.474 0h-11.899v11.942h11.899v-3.942c0.045-0.069 0.071-0.153 0.071-0.243 0-0.007-0-0.014-0-0.021l0 0.001c0.001-0.009 0.001-0.020 0.001-0.030 0-0.086-0.027-0.166-0.073-0.232l0.001 0.001z"></path>
<path fill="#fff" d="M1.575 6.046h0.572l0.129-0.312h0.288l0.128 0.312h1.125v-0.238l0.101 0.239h0.583l0.1-0.241v0.241h2.794l-0.001-0.51h0.054c0.038 0.001 0.049 0.005 0.049 0.067v0.443h1.444v-0.119c0.148 0.075 0.323 0.119 0.508 0.119 0.010 0 0.019-0 0.029-0l-0.001 0h0.609l0.13-0.312h0.289l0.128 0.312h1.171v-0.296l0.177 0.296h0.938v-1.952h-0.929v0.231l-0.129-0.231h-0.954v0.231l-0.119-0.231h-1.288c-0.017-0.001-0.036-0.001-0.056-0.001-0.183 0-0.356 0.043-0.51 0.118l0.007-0.003v-0.114h-0.888v0.114c-0.092-0.072-0.21-0.115-0.338-0.115-0.014 0-0.028 0.001-0.042 0.002l0.002-0h-3.247l-0.219 0.504-0.222-0.504h-1.023v0.231l-0.113-0.231h-0.872l-0.405 0.927zM12.621 5.77h-0.474l-0.634-1.049 0.001 1.049h-0.681l-0.13-0.312h-0.696l-0.125 0.312h-0.392c-0.013 0.001-0.028 0.001-0.043 0.001-0.168 0-0.322-0.059-0.442-0.156l0.001 0.001c-0.113-0.124-0.182-0.29-0.182-0.471 0-0.022 0.001-0.045 0.003-0.066l-0 0.003c-0.001-0.017-0.002-0.038-0.002-0.058 0-0.187 0.069-0.358 0.183-0.489l-0.001 0.001c0.118-0.104 0.274-0.167 0.445-0.167 0.022 0 0.044 0.001 0.065 0.003l-0.003-0h0.323v0.3h-0.316c-0.012-0.001-0.025-0.002-0.038-0.002-0.085 0-0.163 0.033-0.221 0.086l0-0c-0.060 0.078-0.097 0.177-0.097 0.285 0 0.011 0 0.023 0.001 0.034l-0-0.002c-0.001 0.013-0.002 0.028-0.002 0.043 0 0.108 0.035 0.207 0.095 0.287l-0.001-0.001c0.055 0.046 0.126 0.073 0.204 0.073 0.010 0 0.020-0 0.030-0.001l-0.001 0h0.151l0.471-1.101h0.501l0.566 1.323v-1.323h0.51l0.588 0.974v-0.974h0.342zM8.663 5.77h-0.341v-1.399h0.341zM8.127 4.749c0 0.003 0 0.007 0 0.011 0 0.16-0.096 0.298-0.233 0.36l-0.002 0.001c0.066 0.025 0.122 0.066 0.164 0.118l0.001 0.001c0.037 0.059 0.059 0.131 0.059 0.208 0 0.016-0.001 0.033-0.003 0.049l0-0.002v0.275h-0.337l-0.001-0.176c0.003-0.018 0.005-0.039 0.005-0.061 0-0.078-0.022-0.15-0.059-0.212l0.001 0.002c-0.049-0.050-0.122-0.060-0.243-0.060h-0.36v0.508h-0.334v-1.399h0.769c0.023-0.002 0.049-0.004 0.076-0.004 0.119 0 0.232 0.026 0.334 0.074l-0.005-0.002c0.102 0.056 0.17 0.163 0.17 0.286 0 0.008-0 0.017-0.001 0.025l0-0.001zM6.552 5.77h-1.117v-1.399h1.117v0.293h-0.782v0.251h0.763v0.287l-0.763-0.001v0.28h0.782zM5.186 5.77h-0.342l-0.002-1.094-0.485 1.094h-0.293l-0.487-1.097v1.097h-0.68l-0.128-0.312h-0.697l-0.129 0.312h-0.364l0.598-1.399h0.498l0.568 1.325v-1.325h0.547l0.437 0.95 0.402-0.95h0.557zM10.588 5.167l-0.232-0.557-0.229 0.557zM7.69 4.946c-0.040 0.019-0.087 0.030-0.137 0.030-0.010 0-0.020-0-0.030-0.001l0.001 0h-0.407v-0.311h0.412c0.008-0.001 0.018-0.001 0.028-0.001 0.047 0 0.092 0.009 0.134 0.026l-0.002-0.001c0.042 0.022 0.070 0.065 0.070 0.115 0 0.003-0 0.006-0 0.009l0-0c0 0.003 0 0.006 0 0.009 0 0.053-0.027 0.099-0.069 0.125l-0.001 0zM2.647 5.167l-0.229-0.557-0.228 0.557z"></path>
<path fill="#fff" d="M8.056 7.241c0 0.388-0.289 0.469-0.582 0.469h-0.417v0.469h-0.649l-0.412-0.463-0.428 0.463h-1.324v-1.4h1.345l0.411 0.458 0.425-0.458h1.068c0.265 0 0.563 0.074 0.563 0.462zM5.398 7.887h-0.822v-0.278h0.734v-0.286h-0.734v-0.254h0.838l0.366 0.407zM6.724 8.053l-0.513-0.57 0.513-0.552zM7.49 7.425h-0.433v-0.355h0.436c0.121 0 0.205 0.049 0.205 0.172 0 0.121-0.080 0.184-0.208 0.184zM9.746 6.78h1.117v0.29h-0.783v0.254h0.764v0.286h-0.764v0.278l0.783 0.001v0.291h-1.117zM9.323 7.529c0.067 0.024 0.122 0.064 0.163 0.117l0.001 0.001c0.037 0.060 0.058 0.132 0.058 0.209 0 0.016-0.001 0.033-0.003 0.049l0-0.002v0.277h-0.335v-0.175c0-0.084 0.008-0.208-0.054-0.273-0.049-0.051-0.123-0.063-0.245-0.063h-0.358v0.511h-0.335v-1.4h0.771c0.022-0.002 0.047-0.003 0.072-0.003 0.12 0 0.233 0.026 0.335 0.072l-0.005-0.002c0.103 0.056 0.172 0.164 0.172 0.288 0 0.008-0 0.016-0.001 0.024l0-0.001c0 0.004 0 0.008 0 0.012 0 0.16-0.097 0.298-0.235 0.359l-0.003 0.001zM9.121 7.355c-0.040 0.019-0.086 0.030-0.136 0.030-0.010 0-0.020-0-0.030-0.001l0.001 0h-0.407v-0.314h0.412c0.009-0.001 0.019-0.001 0.030-0.001 0.047 0 0.091 0.010 0.131 0.027l-0.002-0.001c0.042 0.023 0.070 0.067 0.070 0.117 0 0.003-0 0.006-0 0.009l0-0c0 0.002 0 0.004 0 0.007 0 0.053-0.027 0.1-0.069 0.127l-0.001 0zM12.139 7.441c0.063 0.069 0.102 0.161 0.102 0.262 0 0.012-0.001 0.024-0.002 0.036l0-0.002c0 0.302-0.188 0.442-0.525 0.442h-0.652v-0.3h0.649c0.007 0.001 0.015 0.001 0.023 0.001 0.042 0 0.082-0.014 0.114-0.037l-0.001 0c0.024-0.022 0.039-0.054 0.039-0.089 0-0 0-0.001 0-0.001v0c0-0.001 0-0.002 0-0.004 0-0.036-0.016-0.068-0.041-0.089l-0-0c-0.028-0.020-0.063-0.033-0.101-0.033-0.006 0-0.012 0-0.018 0.001l0.001-0c-0.313-0.010-0.704 0.010-0.704-0.433 0-0.203 0.128-0.416 0.478-0.416h0.671v0.298h-0.613c-0.008-0.001-0.017-0.002-0.027-0.002-0.039 0-0.077 0.010-0.109 0.027l0.001-0.001c-0.030 0.022-0.050 0.057-0.050 0.096 0 0.049 0.030 0.091 0.072 0.109l0.001 0c0.034 0.010 0.073 0.017 0.113 0.017 0.006 0 0.012-0 0.017-0l-0.001 0 0.181 0.005c0.014-0.001 0.031-0.002 0.047-0.002 0.126 0 0.243 0.043 0.335 0.115l-0.001-0.001zM13.474 8c-0.096 0.112-0.238 0.183-0.396 0.183-0.021 0-0.041-0.001-0.061-0.003l0.002 0h-0.646v-0.3h0.644c0.007 0.001 0.015 0.001 0.024 0.001 0.042 0 0.081-0.014 0.112-0.037l-0.001 0c0.025-0.022 0.040-0.055 0.040-0.090 0-0 0-0 0-0v0c0-0.001 0-0.002 0-0.003 0-0.036-0.016-0.067-0.041-0.089l-0-0c-0.028-0.020-0.063-0.033-0.101-0.033-0.006 0-0.012 0-0.018 0.001l0.001-0c-0.314-0.010-0.706 0.010-0.706-0.433 0-0.203 0.129-0.416 0.479-0.416h0.667v-0.278h-0.62c-0.010-0.001-0.023-0.001-0.035-0.001-0.143 0-0.276 0.043-0.386 0.117l0.003-0.002v-0.115h-0.915c-0.010-0.001-0.022-0.001-0.033-0.001-0.137 0-0.264 0.043-0.368 0.117l0.002-0.001 0.001-0.115h-1.635v0.115c-0.125-0.072-0.274-0.115-0.433-0.115-0.006 0-0.013 0-0.019 0l0.001-0h-1.077v0.115c-0.115-0.074-0.256-0.117-0.407-0.117-0.023 0-0.045 0.001-0.068 0.003l0.003-0h-1.207l-0.276 0.3-0.258-0.3h-1.803v1.953h1.769l0.285-0.304 0.268 0.304 1.089 0.001v-0.46h0.108c0.021 0.001 0.046 0.002 0.071 0.002 0.142 0 0.277-0.026 0.403-0.073l-0.008 0.003v0.527h0.899v-0.51h0.043c0.056 0 0.061 0.003 0.061 0.058v0.452h2.732c0.009 0 0.020 0.001 0.030 0.001 0.158 0 0.305-0.047 0.427-0.127l-0.003 0.002v0.125h0.867c0.012 0 0.026 0.001 0.040 0.001 0.163 0 0.317-0.033 0.458-0.094l-0.008 0.003zM13.474 7.078h-0.611c-0.008-0.001-0.017-0.002-0.027-0.002-0.039 0-0.077 0.010-0.109 0.027l0.001-0.001c-0.030 0.020-0.050 0.054-0.050 0.092 0 0.003 0 0.006 0 0.009l-0-0c-0 0.001-0 0.002-0 0.003 0 0.047 0.031 0.087 0.073 0.101l0.001 0c0.034 0.010 0.072 0.017 0.112 0.017 0.006 0 0.012-0 0.017-0l-0.001 0 0.181 0.005c0.014-0.001 0.031-0.002 0.048-0.002 0.126 0 0.241 0.043 0.333 0.115l-0.001-0.001c0.011 0.011 0.021 0.022 0.031 0.035l0.001 0.001z"></path>
<path fill="#0079c4" d="M0.813 11.695h-0.105c-0.010-0.040-0.015-0.086-0.015-0.134 0-0.002 0-0.003 0-0.005v0c0-0.039-0.006-0.078-0.078-0.078h-0.153l0 0.216h-0.092v-0.528h0.245c0.085 0 0.178 0.030 0.178 0.148 0 0.003 0 0.006 0 0.010 0 0.045-0.022 0.085-0.057 0.109l-0 0c0.024 0.014 0.044 0.036 0.047 0.096l0.004 0.091c0.002 0.027 0.004 0.032 0.026 0.044zM0.699 11.321c0-0.067-0.046-0.073-0.079-0.073h-0.158v0.148h0.146c0.049 0 0.091-0.012 0.091-0.075zM1.133 11.437c0-0.001 0-0.002 0-0.003 0-0.313-0.254-0.567-0.567-0.567s-0.567 0.254-0.567 0.567c0 0.312 0.252 0.565 0.563 0.567h0.004c0.001 0 0.002 0 0.003 0 0.31 0 0.562-0.251 0.564-0.561v-0.002zM1.048 11.437c0 0.002 0 0.004 0 0.007 0 0.259-0.208 0.47-0.467 0.474h-0q-0.007 0-0.014 0c-0.266 0-0.481-0.215-0.481-0.481s0.215-0.481 0.481-0.481v0c0.002-0 0.005-0 0.008-0 0.259 0 0.469 0.208 0.473 0.465v0q0 0.008 0 0.015z"></path>
<path fill="#0079c4" d="M8.127 4.749c0 0.003 0 0.007 0 0.011 0 0.16-0.095 0.299-0.233 0.361l-0.002 0.001c0.066 0.025 0.122 0.065 0.164 0.117l0.001 0.001c0.037 0.059 0.059 0.131 0.059 0.209 0 0.016-0.001 0.033-0.003 0.049l0-0.002v0.275h-0.337l-0.001-0.176c0.003-0.018 0.005-0.039 0.005-0.061 0-0.078-0.022-0.151-0.059-0.213l0.001 0.002c-0.049-0.050-0.122-0.060-0.243-0.060h-0.359v0.508h-0.334v-1.399h0.77c0.023-0.002 0.049-0.004 0.076-0.004 0.119 0 0.232 0.026 0.333 0.073l-0.005-0.002c0.102 0.056 0.17 0.163 0.17 0.286 0 0.009-0 0.017-0.001 0.026l0-0.001z"></path>
<path fill="#0079c4" d="M6.552 5.77h-1.117v-1.399h1.117v0.292h-0.782v0.251h0.763v0.287l-0.763-0.001v0.28h0.782v0.289z"></path>
<path fill="#0079c4" d="M5.186 5.77h-0.342l-0.002-1.094-0.484 1.094h-0.293l-0.488-1.096v1.096h-0.68l-0.128-0.312h-0.697l-0.129 0.312h-0.364l0.598-1.399h0.497l0.568 1.326v-1.326h0.547l0.437 0.95 0.402-0.95h0.557v1.399z"></path>
<path fill="#fff" d="M7.69 4.946c-0.040 0.019-0.086 0.030-0.136 0.030-0.010 0-0.021-0-0.031-0.001l0.001 0h-0.407v-0.311h0.412c0.009-0.001 0.018-0.001 0.028-0.001 0.047 0 0.092 0.009 0.133 0.026l-0.002-0.001c0.042 0.022 0.070 0.065 0.070 0.115 0 0.003-0 0.006-0 0.009l0-0c0 0.003 0 0.006 0 0.009 0 0.052-0.028 0.099-0.069 0.125l-0.001 0z"></path>
<path fill="#fff" d="M2.648 5.167l-0.229-0.557-0.228 0.557h0.457z"></path>
</svg>
