<!-- Generated by IcoMoon.io -->
<svg version="1.1" xmlns="http://www.w3.org/2000/svg" width="14" height="12" viewBox="0 0 14 12">
<title>diners-01</title>
<path fill="#004a97" d="M7.331 6.745c0.006 0 0.013 0 0.021 0 1.509 0 2.741-1.187 2.812-2.679l0-0.006c-0.019-1.513-1.25-2.733-2.766-2.733-0.012 0-0.024 0-0.036 0l0.002-0-0.032 0.001h-1.275c-0.018-0-0.039-0.001-0.061-0.001-1.454 0-2.637 1.162-2.671 2.608l-0 0.003q-0.001 0.061 0 0.121c0.016 1.486 1.225 2.685 2.714 2.685 0.006 0 0.013-0 0.019-0h-0.001z"></path>
<path fill="#fff" d="M6.625 5.498v-2.934c0.595 0.232 1.010 0.801 1.010 1.467s-0.414 1.235-0.999 1.463l-0.011 0.004zM4.491 4.031c0.001-0.665 0.414-1.233 0.998-1.463l0.011-0.004v2.933c-0.594-0.233-1.008-0.801-1.009-1.466v-0zM6.062 1.551c-1.369 0-2.48 1.11-2.48 2.48s1.11 2.48 2.48 2.48c1.369 0 2.48-1.11 2.48-2.479v-0c0-0 0-0 0-0 0-1.369-1.11-2.48-2.48-2.48-0 0-0 0-0 0v0z"></path>
<path fill="#231f20" d="M0.554 8.593c0 0.221 0.158 0.246 0.298 0.246 0.009 0 0.019 0.001 0.030 0.001 0.441 0 0.798-0.357 0.798-0.798 0-0.034-0.002-0.067-0.006-0.1l0 0.004c0.001-0.019 0.002-0.040 0.002-0.062 0-0.475-0.385-0.861-0.861-0.861-0.013 0-0.027 0-0.040 0.001l0.002-0c-0.118 0-0.172 0.008-0.224 0.011zM0.273 7.25c0-0.258-0.134-0.241-0.263-0.243v-0.074c0.112 0.005 0.226 0.005 0.338 0.005 0.12 0 0.283-0.005 0.496-0.005 0.031-0.003 0.067-0.005 0.103-0.005 0.54 0 0.984 0.41 1.038 0.936l0 0.004q0.003 0.033 0.004 0.067c0 0.284-0.166 0.997-1.18 0.997-0.146 0-0.281-0.006-0.415-0.006-0.129 0-0.255 0.003-0.384 0.006v-0.074c0.172-0.017 0.255-0.023 0.263-0.218z"></path>
<path fill="#231f20" d="M2.396 7.181c-0 0-0 0-0 0-0.078 0-0.14-0.063-0.14-0.14s0.063-0.14 0.14-0.14c0.077 0 0.139 0.061 0.14 0.138v0c0 0 0 0 0 0 0 0.078-0.062 0.141-0.14 0.143h-0zM2.089 8.857h0.054c0.080 0 0.137 0 0.137-0.095v-0.776c0-0.126-0.043-0.143-0.149-0.2v-0.046c0.135-0.040 0.295-0.094 0.306-0.103 0.015-0.009 0.033-0.014 0.052-0.014h0c0.014 0 0.020 0.017 0.020 0.040v1.099c0 0.095 0.063 0.095 0.143 0.095h0.049v0.074c-0.097 0-0.198-0.006-0.301-0.006s-0.206 0.003-0.312 0.006z"></path>
<path fill="#231f20" d="M2.974 8.003c0-0.106-0.032-0.134-0.166-0.189v-0.054c0.156-0.048 0.281-0.094 0.403-0.147l-0.025 0.010c0.009 0 0.017 0.006 0.017 0.029v0.186c0.132-0.12 0.304-0.199 0.493-0.215l0.003-0c0.243 0 0.329 0.178 0.329 0.401v0.739c0 0.095 0.063 0.095 0.143 0.095h0.052v0.074c-0.101 0-0.201-0.006-0.304-0.006s-0.206 0.003-0.31 0.006v-0.074h0.052c0.080 0 0.137 0 0.137-0.095v-0.742c0-0.163-0.1-0.243-0.263-0.243-0.127 0.020-0.239 0.069-0.335 0.139l0.002-0.001v0.847c0 0.095 0.063 0.095 0.144 0.095h0.051v0.074c-0.1 0-0.201-0.006-0.304-0.006s-0.206 0.003-0.309 0.006v-0.074h0.052c0.080 0 0.137 0 0.137-0.095z"></path>
<path fill="#231f20" d="M4.948 8.049c0.072 0 0.080-0.037 0.080-0.072 0.001-0.006 0.001-0.014 0.001-0.021 0-0.134-0.109-0.243-0.243-0.243-0.003 0-0.005 0-0.008 0l0-0c-0.175 0-0.295 0.129-0.329 0.335zM4.441 8.141c-0.003 0.025-0.005 0.054-0.005 0.083s0.002 0.058 0.005 0.086l-0-0.003c-0 0.006-0 0.013-0 0.020 0 0.244 0.183 0.445 0.419 0.475l0.002 0c0.155-0.009 0.292-0.081 0.386-0.191l0.001-0.001 0.040 0.040c-0.112 0.183-0.305 0.308-0.528 0.324l-0.002 0c-0.306-0.014-0.549-0.266-0.549-0.575 0-0.009 0-0.018 0.001-0.027l-0 0.001q0.001-0.012 0.002-0.024c0-0.562 0.378-0.728 0.578-0.728 0.009-0.001 0.019-0.001 0.029-0.001 0.241 0 0.438 0.187 0.454 0.424l0 0.001q0.001 0.013 0.001 0.025c0 0.003 0 0.006 0 0.009 0 0.015-0.001 0.030-0.003 0.045l0-0.002-0.026 0.017z"></path>
<path fill="#231f20" d="M5.34 8.857h0.077c0.080 0 0.137 0 0.137-0.095v-0.805c0-0.089-0.106-0.106-0.149-0.129v-0.043c0.209-0.089 0.324-0.163 0.35-0.163 0.017 0 0.025 0.009 0.025 0.037v0.258h0.006c0.071-0.112 0.192-0.295 0.366-0.295 0.002-0 0.005-0 0.007-0 0.084 0 0.152 0.066 0.156 0.149l0 0 0 0.003c0 0.002 0 0.005 0 0.007 0 0.074-0.058 0.135-0.131 0.139l-0 0-0.003 0c-0.089 0-0.089-0.069-0.189-0.069-0.118 0.017-0.208 0.117-0.209 0.238v0.673c0 0.095 0.057 0.095 0.137 0.095h0.16v0.074c-0.158-0.003-0.277-0.006-0.401-0.006-0.117 0-0.238 0.003-0.341 0.006z"></path>
<path fill="#231f20" d="M6.443 8.533c0.014 0.191 0.169 0.341 0.36 0.349l0.001 0c0.009 0.001 0.019 0.002 0.029 0.002 0.112 0 0.202-0.091 0.202-0.202 0-0.001-0-0.002-0-0.003v0c0-0.338-0.624-0.229-0.624-0.69 0.013-0.207 0.184-0.37 0.393-0.37 0.008 0 0.017 0 0.025 0.001l-0.001-0q0.014 0.001 0.027 0.003c0.12 0.003 0.232 0.033 0.33 0.085l-0.004-0.002 0.020 0.292h-0.066c-0.006-0.158-0.135-0.284-0.294-0.284-0.004 0-0.007 0-0.011 0l0.001-0-0.008 0c-0.007-0.001-0.015-0.001-0.022-0.001-0.103 0-0.188 0.078-0.2 0.178l-0 0.001-0.001 0.011c0 0.335 0.664 0.232 0.664 0.682 0 0.189-0.152 0.39-0.493 0.39-0.129-0.004-0.249-0.039-0.353-0.099l0.004 0.002-0.032-0.329z"></path>
<path fill="#231f20" d="M9.851 7.45h-0.071c-0.036-0.269-0.264-0.474-0.54-0.474-0.025 0-0.049 0.002-0.073 0.005l0.003-0-0.002 0c-0.449 0.002-0.813 0.367-0.813 0.816 0 0.032 0.002 0.064 0.005 0.095l-0-0.004c-0.001 0.019-0.002 0.041-0.002 0.064 0 0.488 0.375 0.889 0.852 0.93l0.003 0c0.291-0 0.532-0.213 0.575-0.492l0-0.003 0.066 0.017-0.066 0.418c-0.185 0.089-0.402 0.144-0.631 0.152l-0.003 0c-0.023 0.002-0.049 0.003-0.076 0.003-0.563 0-1.019-0.456-1.019-1.019 0-0.021 0.001-0.042 0.002-0.063l-0 0.003c0.024-0.562 0.486-1.009 1.052-1.009 0.012 0 0.023 0 0.035 0.001l-0.002-0c0.247 0.013 0.477 0.068 0.689 0.157l-0.014-0.005z"></path>
<path fill="#231f20" d="M9.954 8.857h0.054c0.080 0 0.138 0 0.138-0.095v-1.595c0-0.186-0.043-0.192-0.152-0.223v-0.046c0.114-0.037 0.212-0.078 0.305-0.128l-0.010 0.005c0.018-0.012 0.039-0.023 0.061-0.031l0.002-0.001c0.017 0 0.023 0.017 0.023 0.040v1.979c0 0.095 0.063 0.095 0.143 0.095h0.048v0.074c-0.097 0-0.197-0.006-0.301-0.006s-0.206 0.003-0.312 0.006z"></path>
<path fill="#231f20" d="M11.793 8.774c0 0.052 0.031 0.054 0.080 0.054 0.034 0 0.077-0.003 0.115-0.003v0.060c-0.158 0.022-0.298 0.053-0.433 0.094l0.021-0.005-0.014-0.009v-0.232c-0.129 0.136-0.306 0.226-0.505 0.24l-0.003 0c-0.002 0-0.005 0-0.008 0-0.171 0-0.309-0.138-0.309-0.309 0-0.011 0.001-0.022 0.002-0.033l-0 0.001v-0.733c0-0.074-0.011-0.146-0.172-0.16v-0.054c0.103-0.003 0.332-0.020 0.369-0.020 0.032 0 0.032 0.020 0.032 0.083v0.739c0 0.086 0 0.332 0.249 0.332 0.136-0.022 0.255-0.085 0.346-0.175l-0 0v-0.771c0-0.057-0.137-0.089-0.24-0.117v-0.052c0.257-0.017 0.418-0.040 0.447-0.040 0.023 0 0.023 0.020 0.023 0.052z"></path>
<path fill="#231f20" d="M12.363 8.607c0.008 0.159 0.136 0.285 0.294 0.292l0.001 0c0.306 0 0.435-0.301 0.435-0.556 0-0.008 0.001-0.018 0.001-0.028 0-0.271-0.197-0.495-0.456-0.539l-0.003-0c-0.108 0.012-0.202 0.061-0.272 0.134l-0 0zM12.363 7.829c0.111-0.111 0.259-0.186 0.423-0.206l0.003-0c0.298 0.013 0.534 0.257 0.534 0.557 0 0.008-0 0.016-0.001 0.024l0-0.001-0.001 0.021c0 0.008 0.001 0.018 0.001 0.028 0 0.386-0.302 0.701-0.683 0.722l-0.002 0c-0.146-0-0.283-0.037-0.402-0.102l0.004 0.002-0.086 0.066-0.060-0.031c0.025-0.153 0.039-0.329 0.040-0.509v-1.232c0-0.186-0.043-0.192-0.152-0.223v-0.046c0.114-0.037 0.212-0.078 0.305-0.128l-0.010 0.005c0.018-0.012 0.039-0.023 0.061-0.031l0.002-0.001c0.017 0 0.023 0.017 0.023 0.040z"></path>
<path fill="#231f20" d="M0.482 10.65c-0.075 0-0.169-0.006-0.246-0.006-0.076 0-0.168 0.006-0.229 0.006h-0.007v-0.060h0.028c0.057-0.001 0.108-0.006 0.109-0.082v-0.816c-0.001-0.076-0.052-0.081-0.109-0.082h-0.028v-0.060h0.007c0.061 0 0.155 0.006 0.231 0.006 0.078 0 0.171-0.006 0.245-0.006h0.007v0.060h-0.029c-0.057 0.001-0.108 0.006-0.109 0.082v0.816c0 0.076 0.052 0.081 0.109 0.082h0.029v0.060z"></path>
<path fill="#231f20" d="M1.643 10.673l-0.064-0.002-0.791-0.881v0.625c0.002 0.135 0.022 0.174 0.14 0.175h0.033v0.060h-0.007c-0.067 0-0.134-0.006-0.201-0.006-0.070 0-0.141 0.006-0.212 0.006h-0.007v-0.060h0.029c0.103-0.001 0.132-0.067 0.134-0.191v-0.656c0-0 0-0 0-0 0-0.074-0.060-0.133-0.133-0.133h-0.029v-0.060h0.007c0.060 0 0.121 0.006 0.179 0.006 0.046 0 0.091-0.006 0.144-0.004l0.685 0.771v-0.573c-0.001-0.124-0.084-0.139-0.129-0.14h-0.041v-0.060h0.007c0.074 0 0.145 0.006 0.218 0.006 0.063 0 0.127-0.006 0.192-0.006h0.007v0.060h-0.030c-0.064 0.002-0.13 0.007-0.132 0.191v0.709c-0 0.005-0 0.012-0 0.018 0 0.049 0.003 0.097 0.010 0.143l-0.001-0.005 0.001 0.008z"></path>
<path fill="#231f20" d="M2.029 9.633c-0.117 0-0.121 0.028-0.145 0.142h-0.047c0.006-0.044 0.014-0.087 0.019-0.132 0.006-0.040 0.009-0.085 0.009-0.132 0-0 0-0.001 0-0.001v0h0.037c0.013 0.047 0.051 0.045 0.094 0.045h0.804c0.042 0 0.081-0.001 0.084-0.048l0.037 0.006c-0.006 0.042-0.012 0.084-0.017 0.126-0.003 0.042-0.003 0.084-0.003 0.126l-0.047 0.017c-0.003-0.058-0.011-0.15-0.115-0.15h-0.255v0.829c0 0.12 0.055 0.134 0.129 0.134h0.030v0.047c-0.061 0-0.17-0.006-0.254-0.006-0.093 0-0.203 0.006-0.264 0.006v-0.047h0.030c0.086 0 0.129-0.008 0.129-0.131v-0.832z"></path>
<path fill="#231f20" d="M3.806 10.65c-0.1 0-0.279-0.006-0.419-0.006s-0.326 0.006-0.415 0.006h-0.007v-0.060h0.029c0.056-0.001 0.108-0.006 0.108-0.082v-0.816c-0.001-0.076-0.052-0.081-0.108-0.082h-0.029v-0.060h0.007c0.095 0 0.257 0.006 0.388 0.006s0.293-0.006 0.399-0.006h0.007l-0 0.007c-0.001 0.023-0.002 0.051-0.002 0.081 0 0.054 0.002 0.113 0.005 0.157l0 0.006-0.005 0.002-0.055 0.014-0-0.008c-0.009-0.101-0.023-0.175-0.183-0.176h-0.21l-0 0.394h0.179c0.090-0.001 0.106-0.047 0.116-0.131l0.001-0.006h0.060l-0 0.007c-0.003 0.061-0.005 0.121-0.005 0.182 0 0.059 0.002 0.118 0.005 0.177l0 0.006-0.006 0.001-0.054 0.011-0.001-0.007c-0.011-0.095-0.011-0.147-0.115-0.149h-0.18v0.357c0 0.095 0.082 0.094 0.183 0.095 0.188-0.001 0.263-0.010 0.31-0.185l0.002-0.006 0.006 0.001 0.050 0.013-0.001 0.007c-0.020 0.082-0.039 0.165-0.053 0.247l-0.001 0.006z"></path>
<path fill="#231f20" d="M4.345 10.075c0.154-0.001 0.232-0.055 0.234-0.236 0-0.005 0.001-0.010 0.001-0.015 0-0.114-0.092-0.206-0.206-0.206-0.005 0-0.011 0-0.016 0.001l0.001-0c-0.029 0-0.057 0.002-0.085 0.006l0.003-0v0.452zM4.995 10.65c-0.052 0-0.102-0.006-0.153-0.006-0.047 0-0.097 0.006-0.152 0.004-0.109-0.145-0.216-0.309-0.311-0.48l-0.011-0.022h-0.092v0.326c0.002 0.117 0.049 0.116 0.121 0.118h0.035v0.060h-0.007c-0.089 0-0.18-0.006-0.268-0.006-0.074 0-0.148 0.006-0.226 0.006h-0.007v-0.060h0.035c0.056-0 0.103-0.025 0.104-0.077v-0.792c-0.001-0.11-0.055-0.11-0.104-0.112h-0.035v-0.060h0.007c0.050 0 0.147 0.006 0.242 0.006 0.093 0 0.168-0.006 0.251-0.006 0.196 0 0.377 0.055 0.378 0.281-0.004 0.131-0.092 0.241-0.211 0.277l-0.002 0.001 0.262 0.392c0.028 0.054 0.083 0.090 0.146 0.091h0l0.006 0.001v0.059z"></path>
<path fill="#231f20" d="M6.143 10.673l-0.064-0.002-0.791-0.882v0.625c0.002 0.136 0.022 0.174 0.14 0.176h0.033v0.060h-0.007c-0.067 0-0.134-0.006-0.201-0.006-0.070 0-0.142 0.006-0.212 0.006h-0.007v-0.060h0.029c0.103-0 0.132-0.067 0.133-0.191v-0.656c0-0 0-0 0-0 0-0.073-0.059-0.133-0.133-0.133h-0.029v-0.060h0.007c0.059 0 0.12 0.006 0.179 0.006 0.046 0 0.091-0.006 0.143-0.004l0.685 0.771v-0.573c-0-0.124-0.083-0.139-0.129-0.14h-0.041v-0.060h0.007c0.074 0 0.145 0.006 0.218 0.006 0.063 0 0.127-0.006 0.192-0.006h0.007v0.060h-0.030c-0.064 0.002-0.131 0.007-0.132 0.191v0.709c-0 0.006-0 0.013-0 0.020 0 0.048 0.003 0.096 0.010 0.142l-0.001-0.005 0.001 0.008z"></path>
<path fill="#231f20" d="M6.635 10.164h0.273l-0.136-0.418zM7.377 10.65c-0.070-0.003-0.14-0.006-0.215-0.006-0.076 0-0.154 0.003-0.234 0.006l-0.007 0v-0.061h0.024c0.036 0 0.090-0.008 0.090-0.038-0.007-0.041-0.017-0.078-0.032-0.113l0.001 0.003-0.059-0.176h-0.344l-0.048 0.157c-0.014 0.034-0.026 0.074-0.034 0.116l-0.001 0.004c0.001 0.038 0.059 0.047 0.11 0.047h0.024v0.061l-0.007-0c-0.062-0.003-0.126-0.006-0.188-0.006-0.056 0-0.112 0.003-0.168 0.006l-0.007 0v-0.061h0.016c0 0 0 0 0.001 0 0.060 0 0.112-0.040 0.128-0.095l0-0.001 0.25-0.715c0.021-0.052 0.042-0.118 0.059-0.185l0.003-0.013c0.054-0.020 0.101-0.042 0.145-0.069l-0.004 0.002c0.004-0.002 0.010-0.003 0.015-0.004h0c0-0 0.001-0 0.001-0 0.007 0 0.013 0.004 0.016 0.009l0 0c0.004 0.013 0.009 0.027 0.014 0.039l0.287 0.815c0.018 0.055 0.037 0.112 0.057 0.158 0.013 0.035 0.047 0.059 0.085 0.059 0.004 0 0.008-0 0.012-0.001l-0 0h0.016v0.061z"></path>
<path fill="#231f20" d="M7.446 9.633c-0.117 0-0.122 0.028-0.145 0.142h-0.047c0.006-0.044 0.014-0.087 0.019-0.132 0.006-0.039 0.009-0.084 0.009-0.13 0-0.001 0-0.001 0-0.002v0h0.038c0.012 0.047 0.052 0.045 0.093 0.045h0.804c0.042 0 0.081-0.001 0.084-0.048l0.037 0.006c-0.006 0.042-0.012 0.084-0.017 0.126-0.003 0.042-0.003 0.084-0.003 0.126l-0.047 0.017c-0.003-0.058-0.011-0.15-0.115-0.15h-0.256v0.829c0 0.12 0.055 0.134 0.129 0.134h0.030v0.047c-0.061 0-0.17-0.006-0.254-0.006-0.093 0-0.203 0.006-0.263 0.006v-0.047h0.030c0.086 0 0.129-0.008 0.129-0.131v-0.832z"></path>
<path fill="#231f20" d="M8.871 10.65c-0.075 0-0.169-0.006-0.246-0.006-0.076 0-0.168 0.006-0.229 0.006h-0.007v-0.060h0.029c0.056-0.001 0.108-0.006 0.108-0.082v-0.816c-0-0.076-0.052-0.081-0.108-0.082h-0.029v-0.060h0.007c0.061 0 0.155 0.006 0.23 0.006 0.078 0 0.171-0.006 0.245-0.006h0.007v0.060h-0.028c-0.057 0.001-0.108 0.006-0.109 0.082v0.816c0.001 0.076 0.052 0.081 0.109 0.082h0.028v0.060z"></path>
<path fill="#231f20" d="M9.516 10.598c0.302 0 0.355-0.267 0.355-0.494s-0.123-0.504-0.382-0.504c-0.273 0-0.354 0.243-0.354 0.452 0 0.279 0.128 0.546 0.38 0.546zM9.493 9.532c0.015-0.001 0.033-0.002 0.050-0.002 0.284 0 0.518 0.217 0.544 0.494l0 0.002q0.002 0.022 0.002 0.044c0 0.008 0.001 0.016 0.001 0.025 0 0.307-0.242 0.557-0.545 0.571l-0.001 0q-0.022 0.001-0.043 0c-0.010 0.001-0.021 0.001-0.032 0.001-0.293 0-0.532-0.228-0.55-0.517l-0-0.002q-0.001-0.021-0.001-0.042c-0-0.002-0-0.005-0-0.008 0-0.31 0.249-0.562 0.558-0.567h0q0.008-0 0.016 0z"></path>
<path fill="#231f20" d="M11.136 10.333v-0l-0.001-0.001zM11.14 10.336l0.005-0.005zM11.23 10.673l-0.065-0.002-0.791-0.881v0.625c0.002 0.135 0.023 0.174 0.139 0.175h0.034v0.061h-0.007c-0.067 0-0.134-0.006-0.201-0.006-0.070 0-0.141 0.006-0.212 0.006h-0.006v-0.061h0.028c0.103-0 0.132-0.066 0.133-0.191v-0.656c0-0 0-0 0-0 0-0.073-0.059-0.133-0.133-0.133h-0.029v-0.060h0.006c0.060 0 0.121 0.006 0.179 0.006 0.046 0 0.091-0.006 0.144-0.004l0.685 0.771v-0.573c-0-0.124-0.083-0.139-0.129-0.14h-0.041v-0.060h0.007c0.073 0 0.145 0.006 0.218 0.006 0.064 0 0.127-0.006 0.192-0.006h0.007v0.060h-0.030c-0.064 0.002-0.13 0.008-0.132 0.191v0.709c-0 0.006-0 0.013-0 0.021 0 0.048 0.003 0.095 0.010 0.141l-0.001-0.005 0.001 0.008z"></path>
<path fill="#231f20" d="M11.855 9.732l0.003-0.001zM11.722 10.164h0.273l-0.136-0.417zM12.464 10.65c-0.070-0.003-0.14-0.006-0.215-0.006-0.076 0-0.154 0.004-0.233 0.006l-0.007 0v-0.061h0.024c0.036 0 0.090-0.008 0.090-0.038-0.007-0.041-0.018-0.078-0.032-0.113l0.001 0.003-0.059-0.176h-0.344l-0.048 0.157c-0.014 0.034-0.026 0.074-0.033 0.116l-0.001 0.004c0 0.038 0.058 0.048 0.11 0.048h0.024v0.061l-0.007-0c-0.062-0.003-0.126-0.006-0.188-0.006-0.056 0-0.112 0.004-0.168 0.006l-0.007 0v-0.061h0.016c0.061-0 0.112-0.040 0.129-0.096l0-0.001 0.249-0.715c0.020-0.051 0.041-0.116 0.059-0.184l0.003-0.014c0.055-0.020 0.102-0.043 0.146-0.069l-0.004 0.002c0.004-0.002 0.009-0.003 0.015-0.003h0c0-0 0.001-0 0.002-0 0.007 0 0.013 0.004 0.016 0.009l0 0c0.005 0.012 0.009 0.026 0.014 0.039l0.287 0.815c0.019 0.055 0.037 0.112 0.058 0.159 0.014 0.035 0.047 0.059 0.086 0.059 0.004 0 0.008-0 0.011-0.001l-0 0h0.016v0.061z"></path>
<path fill="#231f20" d="M13.341 10.65c-0.137 0-0.275-0.006-0.411-0.006s-0.274 0.006-0.412 0.006h-0.006v-0.060h0.028c0.056-0.001 0.11-0.005 0.11-0.098v-0.801c-0.001-0.076-0.054-0.081-0.11-0.082h-0.028v-0.060h0.006c0.083 0 0.164 0.006 0.246 0.006 0.079 0 0.157-0.006 0.237-0.006h0.006v0.060h-0.046c-0.060 0.002-0.098-0.001-0.099 0.077v0.804c0 0.058 0.038 0.074 0.087 0.081 0.027 0.002 0.056 0.003 0.086 0.003 0 0 0.001 0 0.001 0 0.041 0 0.082-0.002 0.122-0.007l-0.005 0c0.059-0.007 0.11-0.037 0.145-0.081l0-0c0.021-0.032 0.037-0.068 0.047-0.108l0-0.002 0.001-0.005h0.059l-0.001 0.008c-0.018 0.089-0.039 0.176-0.058 0.265l-0.001 0.005z"></path>
<path fill="#231f20" d="M13.354 9.676h0.019c0.021 0 0.031-0.016 0.031-0.042 0-0.001 0-0.003 0-0.005 0-0.017-0.014-0.031-0.031-0.031-0.001 0-0.001 0-0.002 0h-0.018zM13.298 9.762v-0.008c0.020-0.003 0.024-0.002 0.024-0.015v-0.121c0-0.017-0.002-0.023-0.023-0.022v-0.008h0.084c0.029 0 0.055 0.014 0.055 0.043-0 0.024-0.016 0.044-0.038 0.050l-0 0 0.027 0.038c0.010 0.015 0.022 0.028 0.036 0.038l0 0v0.005h-0.032c-0.015 0-0.029-0.032-0.059-0.076h-0.018v0.054c0 0.011 0.004 0.010 0.024 0.013v0.008zM13.38 9.809c0.001 0 0.002 0 0.003 0 0.074 0 0.133-0.060 0.133-0.133s-0.060-0.133-0.133-0.133c-0.073 0-0.132 0.058-0.133 0.13v0l-0 0.004c0 0 0 0.001 0 0.001 0 0.072 0.058 0.131 0.13 0.132h0zM13.38 9.511c0.091 0 0.164 0.074 0.164 0.164s-0.073 0.164-0.164 0.164c-0.090 0-0.164-0.073-0.164-0.164v-0c-0-0.001-0-0.002-0-0.003 0-0.088 0.070-0.159 0.158-0.161h0q0.003-0 0.006 0z"></path>
</svg>
