<!-- Generated by IcoMoon.io -->
<svg version="1.1" xmlns="http://www.w3.org/2000/svg" width="32" height="32" viewBox="0 0 32 32">
<title>elo-(1)</title>
<path fill="#000" d="M0 9.6h32v12.8h-32v-12.8z"></path>
<path fill="#fff100" d="M6 13.1c0.251-0.066 0.538-0.104 0.835-0.104 0.058 0 0.116 0.001 0.173 0.004l-0.008-0c0.014-0 0.031-0 0.048-0 1.448 0 2.657 1.020 2.948 2.381l0.004 0.020 2.1-0.4c-0.506-2.358-2.572-4.1-5.046-4.1-0.019 0-0.038 0-0.057 0l0.003-0c-0.015-0-0.033-0-0.051-0-0.558 0-1.091 0.11-1.577 0.31l0.028-0.010z"></path>
<path fill="#00a3df" d="M3.6 19.9l1.4-1.6c-0.616-0.576-1-1.393-1-2.3s0.384-1.724 0.998-2.298l0.002-0.002-1.4-1.6c-1.046 0.907-1.703 2.238-1.703 3.723 0 0.062 0.001 0.124 0.003 0.186l-0-0.009c-0.002 0.057-0.004 0.125-0.004 0.193 0 1.48 0.658 2.806 1.697 3.702l0.006 0.005z"></path>
<path fill="#ee4023" d="M10 16.6c-0.295 1.38-1.504 2.4-2.952 2.4-0.017 0-0.034-0-0.051-0l0.003 0c-0.364-0.020-0.705-0.092-1.025-0.208l0.025 0.008-0.7 2c0.474 0.187 1.024 0.297 1.599 0.3h0.001c2.482-0.014 4.555-1.745 5.093-4.065l0.007-0.035z"></path>
<path fill="#fff" d="M19 18c-0.337 0.31-0.789 0.5-1.285 0.5-0.005 0-0.011-0-0.016-0h0.001c-0.011 0-0.025 0-0.038 0-0.36 0-0.693-0.112-0.967-0.304l0.005 0.004-0.7 1.1c0.451 0.302 1.003 0.487 1.597 0.5l0.003 0c0.026 0.001 0.056 0.001 0.087 0.001 0.861 0 1.643-0.344 2.214-0.902l-0.001 0.001z"></path>
<path fill="#fff" d="M17.8 13.5c-1.732 0.001-3.143 1.376-3.2 3.095l-0 0.005c0 0.003 0 0.007 0 0.010 0 0.662 0.186 1.28 0.509 1.805l-0.009-0.015 5.7-2.4c-0.324-1.401-1.532-2.439-2.994-2.5l-0.006-0zM15.9 16.9v-0.2c0.007-0.997 0.817-1.802 1.815-1.802 0.030 0 0.060 0.001 0.089 0.002l-0.004-0c0 0 0 0 0 0 0.57 0 1.077 0.273 1.397 0.696l0.003 0.004z"></path>
<path fill="#fff" d="M22.6 12.1v6.1l1.1 0.4-0.5 1.2-1-0.4c-0.192-0.113-0.356-0.245-0.499-0.399l-0.001-0.001c-0.126-0.219-0.2-0.482-0.2-0.762 0-0.013 0-0.027 0-0.040l-0 0.002v-6.1z"></path>
<path fill="#fff" d="M26.4 14.9c0.148-0.066 0.321-0.104 0.502-0.104 0.034 0 0.068 0.001 0.102 0.004l-0.004-0c0.021-0.001 0.046-0.001 0.071-0.001 0.878 0 1.605 0.648 1.728 1.492l0.001 0.009 1.3-0.3c-0.334-1.431-1.592-2.484-3.098-2.5h-0.002c-0.362 0.009-0.704 0.082-1.020 0.207l0.020-0.007z"></path>
<path fill="#fff" d="M24.9 19.1l0.9-1c-0.37-0.31-0.604-0.772-0.604-1.289 0-0.039 0.001-0.078 0.004-0.116l-0 0.005c-0.002-0.033-0.004-0.072-0.004-0.111 0-0.517 0.234-0.979 0.601-1.287l0.003-0.002-0.9-1c-0.674 0.562-1.101 1.402-1.101 2.342 0 0.020 0 0.041 0.001 0.061l-0-0.003c0.077 0.942 0.483 1.776 1.1 2.4l-0-0z"></path>
<path fill="#fff" d="M28.8 17.1c-0.193 0.841-0.919 1.465-1.796 1.5l-0.004 0c-0.029 0.002-0.063 0.004-0.098 0.004-0.182 0-0.354-0.038-0.511-0.107l0.008 0.003-0.4 1.2c0.295 0.108 0.636 0.18 0.991 0.2l0.009 0c1.508-0.016 2.766-1.069 3.096-2.478l0.004-0.022z"></path>
</svg>
