<!-- Generated by IcoMoon.io -->
<svg version="1.1" xmlns="http://www.w3.org/2000/svg" width="12" height="12" viewBox="0 0 12 12">
<title>hipercard</title>
<path fill="#b50f12" d="M5.307 5.68c-0.169 0.023-0.306 0.139-0.359 0.294l-0.001 0.003h0.54c0.007-0.024 0.011-0.052 0.011-0.081 0-0.057-0.016-0.111-0.043-0.157l0.001 0.001c-0.033-0.037-0.081-0.061-0.134-0.061-0.005 0-0.011 0-0.016 0.001l0.001-0z"></path>
<path fill="#b50f12" d="M7.874 6.403c-0.005 0.015-0.008 0.032-0.008 0.050 0 0.030 0.009 0.059 0.024 0.083l-0-0.001c0.023 0.025 0.056 0.040 0.093 0.040 0.003 0 0.006-0 0.009-0l-0 0c0.13-0.006 0.24-0.080 0.299-0.187l0.001-0.002c0.010-0.018 0.019-0.039 0.025-0.061l0-0.002 0.040-0.172c-0.28 0.001-0.443 0.086-0.482 0.252z"></path>
<path fill="#b50f12" d="M4.037 5.698c-0.16 0.015-0.292 0.116-0.353 0.256l-0.001 0.003c-0.013 0.024-0.025 0.052-0.033 0.082l-0.001 0.003-0.050 0.211c-0.006 0.025-0.010 0.055-0.011 0.085l-0 0.001c-0 0.004-0 0.008-0 0.012 0 0.118 0.096 0.214 0.214 0.214 0.003 0 0.005-0 0.008-0l-0 0c0.201 0 0.366-0.172 0.431-0.45 0.013-0.039 0.021-0.084 0.021-0.131 0-0.079-0.022-0.153-0.061-0.216l0.001 0.002c-0.037-0.045-0.092-0.073-0.155-0.073-0.004 0-0.008 0-0.012 0l0.001-0z"></path>
<path fill="#b50f12" d="M10.286 5.696c-0.192 0-0.364 0.181-0.427 0.45-0.014 0.040-0.022 0.086-0.022 0.134 0 0.077 0.021 0.15 0.058 0.212l-0.001-0.002c0.038 0.044 0.093 0.072 0.155 0.072 0.005 0 0.009-0 0.014-0l-0.001 0c0.155-0.012 0.284-0.11 0.341-0.246l0.001-0.003c0.012-0.026 0.022-0.056 0.029-0.087l0.001-0.003 0.050-0.214c0.007-0.026 0.011-0.055 0.012-0.086v-0c0-0.004 0-0.008 0-0.013 0-0.060-0.023-0.115-0.061-0.157l0 0c-0.037-0.036-0.087-0.057-0.142-0.057-0.003 0-0.005 0-0.008 0l0-0z"></path>
<path fill="#b50f12" d="M1.95 3.563c-0.511 0.018-0.934 0.376-1.048 0.855l-0.002 0.008-0.9 4.012h10.050c0.511-0.018 0.934-0.376 1.048-0.855l0.002-0.008 0.9-4.012zM2.992 5.16c0.020-0.093 0.1-0.162 0.197-0.166l0-0c0.002-0 0.004-0 0.006-0 0.041 0 0.077 0.018 0.101 0.047l0 0c0.018 0.025 0.029 0.056 0.029 0.090 0 0.016-0.002 0.031-0.007 0.045l0-0.001c-0.020 0.094-0.101 0.163-0.199 0.164h-0c-0.001 0-0.003 0-0.004 0-0.040 0-0.076-0.018-0.1-0.047l-0-0c-0.018-0.025-0.029-0.056-0.029-0.089 0-0.015 0.002-0.029 0.006-0.043l-0 0.001zM2.302 6.78h-0.211c-0.019-0-0.034-0.015-0.034-0.034 0-0.003 0-0.005 0.001-0.008l-0 0 0.179-0.763h-0.712l-0.183 0.778c-0.004 0.015-0.017 0.026-0.033 0.026 0 0 0 0-0 0h-0.208c-0.019-0-0.034-0.015-0.034-0.034 0-0.003 0-0.005 0.001-0.008l-0 0 0.403-1.716c0.004-0.015 0.017-0.026 0.033-0.026h0.208c0.011 0 0.020 0.005 0.026 0.013l0 0c0.005 0.006 0.007 0.013 0.007 0.021 0 0.003-0 0.005-0.001 0.008l0-0-0.159 0.677h0.712l0.163-0.692c0.004-0.015 0.017-0.026 0.033-0.026h0.211c0.011 0 0.020 0.005 0.026 0.013l0 0c0.005 0.006 0.007 0.013 0.007 0.021 0 0.003-0 0.005-0.001 0.008l0-0-0.403 1.716c-0.004 0.015-0.017 0.026-0.033 0.026 0 0 0 0-0 0v0zM2.891 6.78h-0.211c-0.019-0-0.034-0.015-0.034-0.034 0-0.003 0-0.005 0.001-0.008l-0 0 0.29-1.232c0.004-0.015 0.017-0.026 0.033-0.026h0.211c0.011 0 0.020 0.005 0.026 0.013l0 0c0.005 0.006 0.007 0.013 0.007 0.021 0 0.003-0 0.005-0.001 0.008l0-0-0.29 1.232c-0.004 0.015-0.017 0.026-0.033 0.026 0 0 0 0 0 0v0zM4.521 6.12c-0.048 0.368-0.344 0.655-0.713 0.688l-0.003 0c-0.006 0-0.014 0.001-0.021 0.001-0.114 0-0.216-0.054-0.282-0.137l-0.001-0.001-0.138 0.587c-0.004 0.015-0.017 0.026-0.033 0.026 0 0 0 0-0 0h-0.208c-0.019-0-0.034-0.015-0.034-0.034 0-0.003 0-0.005 0.001-0.008l-0 0 0.314-1.334c0.037-0.158 0.062-0.285 0.085-0.401 0.003-0.016 0.017-0.027 0.033-0.027h0.189c0.010 0 0.020 0.005 0.026 0.012l0 0c0.005 0.006 0.008 0.013 0.008 0.021 0 0.002-0 0.004-0.001 0.007l0-0-0.020 0.103c0.108-0.106 0.256-0.171 0.42-0.171h0c0.004-0 0.009-0 0.014-0 0.117 0 0.222 0.054 0.291 0.139l0.001 0.001c0.063 0.095 0.101 0.213 0.101 0.339 0 0.068-0.011 0.133-0.031 0.194l0.001-0.004zM5.737 6.074c-0.009 0.039-0.020 0.071-0.028 0.095l-0.004 0.013c-0.005 0.013-0.017 0.023-0.032 0.023h-0.788c-0.008 0.027-0.013 0.058-0.013 0.090 0 0.068 0.021 0.131 0.056 0.183l-0.001-0.001c0.052 0.055 0.126 0.089 0.208 0.089 0.007 0 0.014-0 0.021-0.001l-0.001 0c0.005 0 0.011 0 0.017 0 0.111 0 0.216-0.023 0.312-0.063l-0.005 0.002c0.004-0.002 0.008-0.002 0.013-0.002 0.007 0 0.014 0.002 0.019 0.006l-0-0c0.009 0.006 0.015 0.016 0.015 0.028 0 0 0 0 0 0v-0l-0.002 0.16c-0 0.014-0.009 0.025-0.020 0.030l-0 0c-0.118 0.050-0.256 0.079-0.401 0.079-0.006 0-0.012-0-0.017-0l0.001 0c-0.010 0.001-0.021 0.001-0.032 0.001-0.142 0-0.269-0.062-0.356-0.161l-0-0.001c-0.061-0.090-0.098-0.202-0.098-0.322 0-0.064 0.011-0.126 0.030-0.184l-0.001 0.004c0.058-0.37 0.357-0.655 0.73-0.69l0.003-0c0.008-0.001 0.017-0.001 0.026-0.001 0.114 0 0.216 0.051 0.284 0.131l0 0.001c0.056 0.091 0.089 0.202 0.089 0.321 0 0.061-0.009 0.119-0.025 0.175l0.001-0.004zM6.234 5.998c-0.011 0.027-0.023 0.060-0.031 0.094l-0.001 0.005-0.155 0.657c-0.003 0.015-0.017 0.026-0.032 0.026-0 0-0 0-0 0h-0.209c-0.019-0-0.034-0.015-0.034-0.034 0-0.003 0-0.005 0.001-0.008l-0 0 0.199-0.848c0.036-0.154 0.062-0.276 0.081-0.382 0.003-0.016 0.016-0.028 0.033-0.028 0 0 0 0 0 0h0.185c0 0 0 0 0 0 0.010 0 0.020 0.005 0.026 0.012l0 0c0.005 0.006 0.008 0.013 0.008 0.021 0 0.002-0 0.005-0.001 0.007l0-0-0.021 0.103c0.076-0.102 0.197-0.168 0.333-0.168 0.024 0 0.047 0.002 0.070 0.006l-0.002-0c0.014 0.004 0.024 0.017 0.024 0.032 0 0.003-0 0.006-0.001 0.008l0-0-0.050 0.211c-0.002 0.009-0.007 0.016-0.015 0.021l-0 0c-0.005 0.003-0.011 0.005-0.017 0.005-0.003 0-0.006-0-0.009-0.001l0 0c-0.017-0.004-0.037-0.006-0.057-0.006-0.002 0-0.004 0-0.006 0h0c-0.152 0.018-0.275 0.124-0.318 0.264l-0.001 0.003zM6.914 6.467c0.049 0.058 0.122 0.094 0.203 0.094 0.006 0 0.011-0 0.017-0.001l-0.001 0c0.095-0.001 0.184-0.022 0.264-0.061l-0.004 0.002c0.004-0.002 0.008-0.003 0.013-0.003 0.007 0 0.014 0.002 0.019 0.006l-0-0c0.009 0.006 0.015 0.016 0.015 0.028 0 0 0 0 0 0.001v-0l-0.003 0.168c-0 0.013-0.008 0.024-0.019 0.030l-0 0c-0.106 0.047-0.229 0.074-0.359 0.074-0.002 0-0.004-0-0.006-0h0c-0.009 0.001-0.019 0.001-0.030 0.001-0.144 0-0.273-0.064-0.36-0.165l-0.001-0.001c-0.063-0.091-0.101-0.205-0.101-0.327 0-0.064 0.010-0.125 0.029-0.183l-0.001 0.004c0.076-0.385 0.408-0.673 0.809-0.68l0.001-0c0.004-0 0.009-0 0.014-0 0.103 0 0.199 0.025 0.284 0.070l-0.003-0.002c0.010 0.006 0.016 0.017 0.016 0.029 0 0.006-0.001 0.011-0.004 0.016l0-0-0.089 0.173c-0.004 0.009-0.012 0.015-0.022 0.017l-0 0c-0.003 0.001-0.005 0.001-0.008 0.001-0.007 0-0.014-0.002-0.019-0.006l0 0c-0.054-0.033-0.119-0.053-0.188-0.053-0.008 0-0.016 0-0.024 0.001l0.001-0c-0.247 0.016-0.446 0.199-0.487 0.437l-0 0.003c-0.012 0.035-0.019 0.076-0.019 0.119 0 0.077 0.023 0.149 0.062 0.209l-0.001-0.001zM8.665 5.998l-0.108 0.461c-0.022 0.083-0.040 0.181-0.049 0.282l-0.001 0.007c-0.001 0.018-0.016 0.031-0.034 0.032h-0.192c-0.010-0-0.019-0.004-0.025-0.011l-0-0c-0.005-0.006-0.008-0.014-0.008-0.023 0-0.001 0-0.003 0-0.004l-0 0 0.009-0.069c-0.097 0.082-0.223 0.133-0.36 0.135l-0 0c-0.006 0-0.014 0.001-0.021 0.001-0.093 0-0.177-0.042-0.233-0.107l-0-0c-0.039-0.054-0.063-0.123-0.063-0.196 0-0.033 0.005-0.065 0.014-0.095l-0.001 0.002c0.073-0.309 0.36-0.48 0.812-0.484 0.009-0.023 0.014-0.050 0.014-0.078 0-0.042-0.011-0.081-0.031-0.115l0.001 0.001c-0.032-0.033-0.077-0.053-0.127-0.053-0.007 0-0.014 0-0.021 0.001l0.001-0c-0.113 0.002-0.219 0.034-0.309 0.089l0.003-0.002c-0.005 0.003-0.011 0.004-0.017 0.004s-0.011-0.001-0.015-0.003l0 0c-0.010-0.005-0.017-0.015-0.018-0.027l-0-0-0.013-0.148c-0-0.001-0-0.002-0-0.003 0-0.012 0.006-0.023 0.016-0.028l0-0c0.122-0.071 0.268-0.114 0.424-0.114h0c0.010-0.001 0.022-0.002 0.034-0.002 0.109 0 0.208 0.047 0.276 0.122l0 0c0.046 0.073 0.073 0.163 0.073 0.258 0 0.060-0.011 0.117-0.030 0.17l0.001-0.003zM9.223 5.998c-0.011 0.027-0.023 0.060-0.031 0.094l-0.001 0.005-0.155 0.657c-0.003 0.015-0.017 0.026-0.032 0.026-0 0-0 0-0 0h-0.209c-0.019 0-0.034-0.015-0.034-0.034 0-0.003 0-0.005 0.001-0.008l-0 0 0.199-0.848c0.036-0.154 0.062-0.276 0.081-0.382 0.003-0.016 0.016-0.028 0.033-0.028 0 0 0 0 0 0h0.185c0 0 0 0 0 0 0.010 0 0.020 0.005 0.026 0.012l0 0c0.005 0.006 0.008 0.013 0.008 0.021 0 0.002-0 0.005-0.001 0.007l0-0-0.021 0.103c0.076-0.102 0.197-0.168 0.333-0.168 0.024 0 0.047 0.002 0.070 0.006l-0.002-0c0.014 0.004 0.024 0.017 0.024 0.032 0 0.003-0 0.006-0.001 0.008l0-0-0.050 0.211c-0.002 0.009-0.007 0.016-0.015 0.021l-0 0c-0.005 0.003-0.011 0.005-0.017 0.005-0.003 0-0.006-0-0.009-0.001l0 0c-0.017-0.004-0.037-0.006-0.057-0.006-0.002 0-0.004 0-0.006 0h0c-0.152 0.018-0.275 0.124-0.318 0.264l-0.001 0.003zM10.664 6.436c-0.018 0.077-0.051 0.219-0.065 0.315-0.002 0.016-0.016 0.029-0.033 0.029-0 0-0 0-0 0h-0.19c-0.010-0-0.020-0.005-0.026-0.012l-0-0c-0.005-0.006-0.008-0.013-0.008-0.022 0-0.002 0-0.004 0.001-0.006l-0 0 0.018-0.097c-0.104 0.101-0.245 0.164-0.401 0.166h-0c-0.004 0-0.009 0-0.014 0-0.119 0-0.225-0.055-0.295-0.141l-0.001-0.001c-0.064-0.095-0.102-0.212-0.102-0.338 0-0.067 0.011-0.132 0.031-0.192l-0.001 0.004c0.054-0.363 0.343-0.645 0.704-0.688l0.004-0c0.007-0.001 0.015-0.001 0.023-0.001 0.111 0 0.209 0.051 0.273 0.131l0.001 0.001 0.153-0.652c0.003-0.015 0.017-0.026 0.032-0.026 0 0 0 0 0 0h0.211c0.019 0 0.034 0.015 0.034 0.034 0 0.003-0 0.005-0.001 0.008l0-0z"></path>
</svg>
