<!-- Generated by IcoMoon.io -->
<svg version="1.1" xmlns="http://www.w3.org/2000/svg" width="32" height="32" viewBox="0 0 32 32">
<title>mastercard</title>
<path fill="#1d1d1b" d="M5.483 25.821c-0.091-0.090-0.199-0.163-0.32-0.212l-0.006-0.002c-0.119-0.048-0.257-0.077-0.402-0.077-0.004 0-0.008 0-0.012 0h0.001c-0.088 0-0.173 0.008-0.256 0.022l0.009-0.001c-0.094 0.015-0.179 0.041-0.258 0.075l0.007-0.003c-0.090 0.039-0.167 0.087-0.235 0.145l0.001-0.001c-0.077 0.065-0.141 0.141-0.191 0.227l-0.002 0.004c-0.088-0.145-0.209-0.261-0.353-0.34l-0.005-0.002c-0.144-0.078-0.315-0.125-0.497-0.125-0.007 0-0.014 0-0.021 0h0.001c-0.072 0-0.142 0.007-0.21 0.019l0.007-0.001c-0.078 0.014-0.148 0.035-0.214 0.064l0.006-0.002c-0.153 0.066-0.278 0.172-0.366 0.306l-0.002 0.003v-0.32h-0.55v2.617h0.555v-1.451c-0-0.004-0-0.009-0-0.014 0-0.102 0.019-0.199 0.055-0.288l-0.002 0.005c0.034-0.085 0.082-0.157 0.142-0.217l-0 0c0.057-0.057 0.127-0.102 0.204-0.131l0.004-0.001c0.074-0.029 0.16-0.045 0.249-0.045 0.002 0 0.003 0 0.005 0h-0c0.009-0.001 0.020-0.001 0.031-0.001 0.16 0 0.304 0.069 0.404 0.178l0 0c0.098 0.125 0.156 0.285 0.156 0.459 0 0.017-0.001 0.035-0.002 0.052l0-0.002v1.456h0.555v-1.451c-0-0.004-0-0.009-0-0.014 0-0.102 0.019-0.199 0.055-0.288l-0.002 0.005c0.034-0.085 0.082-0.157 0.141-0.217l-0 0c0.057-0.057 0.127-0.102 0.204-0.131l0.004-0.001c0.074-0.029 0.16-0.045 0.249-0.045 0.002 0 0.003 0 0.005 0h-0c0.009-0.001 0.020-0.001 0.031-0.001 0.16 0 0.304 0.069 0.404 0.178l0 0c0.098 0.125 0.156 0.285 0.156 0.459 0 0.017-0.001 0.035-0.002 0.052l0-0.002v1.456h0.555v-1.645c0-0.004 0-0.009 0-0.013 0-0.146-0.028-0.287-0.078-0.415l0.003 0.008c-0.050-0.128-0.122-0.238-0.213-0.329l0 0z"></path>
<path fill="#1d1d1b" d="M8.411 25.915c-0.091-0.116-0.204-0.21-0.333-0.277l-0.006-0.003c-0.133-0.067-0.29-0.106-0.456-0.106-0.010 0-0.020 0-0.029 0l0.001-0c-0.004-0-0.008-0-0.012-0-0.359 0-0.684 0.149-0.916 0.388l-0 0c-0.117 0.122-0.212 0.267-0.276 0.427l-0.003 0.009c-0.064 0.164-0.101 0.354-0.101 0.553s0.037 0.389 0.105 0.564l-0.004-0.011c0.067 0.169 0.161 0.314 0.279 0.436l-0-0c0.232 0.239 0.557 0.388 0.916 0.388 0.004 0 0.009-0 0.013-0h-0.001c0.008 0 0.018 0 0.028 0 0.166 0 0.322-0.038 0.462-0.107l-0.006 0.003c0.135-0.069 0.248-0.163 0.337-0.276l0.002-0.002v0.314h0.571v-2.617h-0.571zM8.389 27.24c-0.038 0.103-0.093 0.191-0.162 0.266l0.001-0.001c-0.069 0.074-0.151 0.133-0.244 0.174l-0.005 0.002c-0.096 0.041-0.207 0.064-0.324 0.064-0.119 0-0.233-0.025-0.336-0.069l0.005 0.002c-0.097-0.044-0.179-0.105-0.247-0.18l-0.001-0.001c-0.066-0.075-0.119-0.163-0.154-0.261l-0.002-0.006c-0.035-0.097-0.055-0.209-0.055-0.325s0.020-0.228 0.057-0.332l-0.002 0.007c0.036-0.103 0.089-0.191 0.156-0.267l-0.001 0.001c0.068-0.075 0.15-0.136 0.243-0.178l0.005-0.002c0.098-0.042 0.211-0.067 0.33-0.067 0.117 0 0.228 0.024 0.329 0.066l-0.006-0.002c0.097 0.043 0.18 0.103 0.248 0.176l0 0c0.068 0.074 0.123 0.162 0.159 0.259l0.002 0.006c0.036 0.099 0.057 0.214 0.057 0.333s-0.021 0.234-0.060 0.34l0.002-0.007z"></path>
<path fill="#1d1d1b" d="M11.607 26.903c-0.188-0.134-0.416-0.224-0.663-0.249l-0.006-0.001-0.27-0.041q-0.090-0.014-0.169-0.031c-0.052-0.011-0.097-0.027-0.14-0.049l0.003 0.001c-0.037-0.019-0.067-0.045-0.091-0.076l-0-0.001c-0.021-0.030-0.034-0.068-0.034-0.108 0-0.002 0-0.005 0-0.007v0c0-0 0-0 0-0 0-0.096 0.052-0.179 0.129-0.225l0.001-0.001c0.094-0.055 0.207-0.087 0.327-0.087 0.013 0 0.027 0 0.040 0.001l-0.002-0c0 0 0.001 0 0.001 0 0.085 0 0.168 0.008 0.249 0.023l-0.008-0.001c0.090 0.016 0.166 0.035 0.24 0.058l-0.014-0.004c0.078 0.024 0.142 0.048 0.204 0.077l-0.010-0.004c0.060 0.027 0.108 0.052 0.155 0.079l-0.007-0.004 0.246-0.445c-0.137-0.087-0.297-0.157-0.466-0.201l-0.012-0.003c-0.171-0.046-0.366-0.072-0.568-0.072-0.005 0-0.010 0-0.014 0h0.001c-0.006-0-0.014-0-0.021-0-0.153 0-0.301 0.021-0.441 0.062l0.011-0.003c-0.13 0.037-0.243 0.094-0.343 0.169l0.003-0.002c-0.091 0.069-0.164 0.158-0.214 0.259l-0.002 0.004c-0.047 0.099-0.075 0.215-0.075 0.337 0 0.004 0 0.009 0 0.013v-0.001c-0 0.007-0 0.014-0 0.022 0 0.196 0.087 0.371 0.225 0.489l0.001 0.001c0.183 0.141 0.41 0.234 0.658 0.255l0.005 0 0.273 0.035c0.128 0.011 0.245 0.049 0.349 0.107l-0.004-0.002c0.065 0.037 0.108 0.106 0.109 0.184v0c-0.001 0.103-0.062 0.191-0.149 0.233l-0.002 0.001c-0.114 0.055-0.249 0.088-0.391 0.088-0.019 0-0.038-0.001-0.057-0.002l0.003 0c-0.005 0-0.010 0-0.015 0-0.096 0-0.191-0.008-0.283-0.023l0.010 0.001c-0.089-0.015-0.167-0.035-0.242-0.062l0.010 0.003c-0.073-0.025-0.135-0.054-0.194-0.088l0.005 0.003c-0.059-0.034-0.11-0.068-0.158-0.105l0.003 0.002-0.265 0.429c0.086 0.066 0.184 0.123 0.289 0.169l0.009 0.003c0.085 0.037 0.187 0.072 0.292 0.099l0.014 0.003c0.081 0.021 0.177 0.039 0.276 0.049l0.008 0.001q0.134 0.012 0.235 0.012c0.007 0 0.016 0 0.024 0 0.171 0 0.336-0.023 0.493-0.066l-0.013 0.003c0.143-0.038 0.268-0.099 0.378-0.179l-0.003 0.002c0.097-0.071 0.175-0.162 0.23-0.266l0.002-0.004c0.051-0.098 0.081-0.214 0.081-0.337 0-0.003-0-0.006-0-0.009v0c0-0.009 0.001-0.019 0.001-0.030 0-0.2-0.094-0.378-0.24-0.492l-0.001-0.001z"></path>
<path fill="#1d1d1b" d="M16.953 25.911c-0.107-0.119-0.237-0.214-0.384-0.279l-0.007-0.003c-0.144-0.063-0.311-0.1-0.487-0.1-0.005 0-0.010 0-0.015 0h0.001c-0.005-0-0.011-0-0.017-0-0.184 0-0.36 0.037-0.52 0.103l0.009-0.003c-0.161 0.067-0.298 0.162-0.411 0.281l-0 0c-0.114 0.122-0.205 0.267-0.265 0.427l-0.003 0.009c-0.061 0.161-0.096 0.347-0.096 0.541 0 0.007 0 0.013 0 0.020v-0.001c-0 0.006-0 0.014-0 0.021 0 0.196 0.036 0.383 0.102 0.555l-0.004-0.011c0.065 0.169 0.158 0.314 0.276 0.435l-0-0c0.117 0.118 0.258 0.213 0.415 0.276l0.008 0.003c0.155 0.062 0.335 0.099 0.524 0.099 0.006 0 0.012-0 0.018-0h-0.001c0.003 0 0.006 0 0.009 0 0.199 0 0.391-0.030 0.571-0.086l-0.014 0.004c0.197-0.063 0.367-0.161 0.511-0.288l-0.002 0.001-0.284-0.407c-0.104 0.083-0.223 0.152-0.353 0.201l-0.009 0.003c-0.117 0.045-0.253 0.072-0.394 0.072h-0c-0.001 0-0.002 0-0.004 0-0.094 0-0.185-0.014-0.271-0.040l0.007 0.002c-0.089-0.027-0.166-0.067-0.234-0.12l0.002 0.001c-0.071-0.057-0.131-0.125-0.176-0.203l-0.002-0.003c-0.050-0.088-0.086-0.19-0.101-0.299l-0.001-0.004h1.934q0.006-0.049 0.008-0.104t0.003-0.109c0-0.006 0-0.013 0-0.020 0-0.193-0.034-0.378-0.095-0.55l0.004 0.011c-0.060-0.168-0.146-0.312-0.255-0.436l0.001 0.001zM15.356 26.683c0.015-0.097 0.041-0.185 0.079-0.267l-0.002 0.006c0.036-0.079 0.083-0.147 0.141-0.205l-0 0c0.057-0.056 0.125-0.101 0.201-0.131l0.004-0.001c0.077-0.029 0.166-0.047 0.259-0.047 0.005 0 0.009 0 0.014 0h-0.001c0.007-0 0.015-0 0.024-0 0.164 0 0.312 0.065 0.422 0.17l-0-0c0.119 0.126 0.198 0.29 0.218 0.472l0 0.004z"></path>
<path fill="#1d1d1b" d="M24.539 25.915c-0.091-0.116-0.204-0.21-0.333-0.277l-0.006-0.003c-0.133-0.067-0.29-0.106-0.456-0.106-0.010 0-0.020 0-0.029 0l0.001-0c-0.004-0-0.008-0-0.012-0-0.359 0-0.684 0.149-0.916 0.388l-0 0c-0.117 0.122-0.212 0.267-0.276 0.427l-0.003 0.009c-0.064 0.164-0.101 0.354-0.101 0.553s0.037 0.389 0.105 0.564l-0.004-0.011c0.067 0.169 0.161 0.314 0.279 0.436l-0-0c0.232 0.239 0.557 0.388 0.916 0.388 0.004 0 0.009-0 0.013-0h-0.001c0.008 0 0.018 0 0.028 0 0.166 0 0.322-0.038 0.462-0.107l-0.006 0.003c0.135-0.069 0.248-0.163 0.337-0.276l0.002-0.002v0.314h0.571v-2.617h-0.571zM24.517 27.24c-0.038 0.103-0.093 0.191-0.162 0.266l0-0.001c-0.069 0.074-0.151 0.133-0.244 0.174l-0.005 0.002c-0.096 0.041-0.207 0.064-0.324 0.064-0.119 0-0.233-0.025-0.336-0.069l0.006 0.002c-0.097-0.044-0.179-0.105-0.247-0.18l-0.001-0.001c-0.066-0.075-0.119-0.163-0.154-0.261l-0.002-0.006c-0.035-0.097-0.055-0.209-0.055-0.325s0.020-0.228 0.057-0.332l-0.002 0.007c0.036-0.103 0.089-0.191 0.156-0.267l-0.001 0.001c0.068-0.075 0.15-0.136 0.243-0.178l0.005-0.002c0.098-0.042 0.211-0.067 0.33-0.067 0.117 0 0.228 0.024 0.329 0.066l-0.006-0.002c0.097 0.043 0.18 0.103 0.248 0.176l0 0c0.068 0.074 0.123 0.162 0.159 0.259l0.002 0.006c0.036 0.099 0.057 0.214 0.057 0.333s-0.021 0.234-0.059 0.34l0.002-0.007z"></path>
<path fill="#1d1d1b" d="M14.055 27.694c-0.081 0.032-0.174 0.051-0.272 0.052h-0c-0.001 0-0.003 0-0.004 0-0.057 0-0.111-0.010-0.161-0.028l0.003 0.001c-0.052-0.019-0.096-0.048-0.131-0.086l-0-0c-0.039-0.042-0.069-0.093-0.088-0.149l-0.001-0.003c-0.021-0.062-0.033-0.134-0.033-0.209 0-0.005 0-0.011 0-0.016v0.001-1.139h0.917v-0.519h-0.917v-0.792h-0.574v0.792h-0.522v0.519h0.522v1.15c-0.002 0.026-0.004 0.057-0.004 0.088 0 0.261 0.095 0.499 0.252 0.682l-0.001-0.001c0.166 0.154 0.39 0.249 0.636 0.249 0.020 0 0.040-0.001 0.060-0.002l-0.003 0c0.006 0 0.012 0 0.019 0 0.154 0 0.301-0.028 0.436-0.079l-0.008 0.003c0.096-0.037 0.176-0.076 0.253-0.12l-0.009 0.005-0.195-0.478c-0.048 0.026-0.105 0.053-0.164 0.076l-0.010 0.003z"></path>
<path fill="#1d1d1b" d="M19.21 25.53c-0.005-0-0.010-0-0.015-0-0.152 0-0.296 0.032-0.426 0.090l0.007-0.003c-0.135 0.080-0.244 0.19-0.323 0.32l-0.002 0.004v-0.343h-0.518v2.617h0.524v-1.44c-0-0.004-0-0.009-0-0.014 0-0.102 0.017-0.199 0.048-0.29l-0.002 0.006c0.029-0.086 0.073-0.159 0.129-0.222l-0.001 0.001c0.053-0.059 0.119-0.105 0.193-0.135l0.004-0.001c0.072-0.029 0.156-0.047 0.244-0.047 0.003 0 0.005 0 0.008 0h-0c0.080 0.001 0.157 0.010 0.231 0.026l-0.007-0.001c0.045 0.009 0.084 0.020 0.121 0.033l-0.007-0.002 0.169-0.546c-0.038-0.013-0.085-0.025-0.134-0.034l-0.006-0.001c-0.068-0.011-0.146-0.018-0.225-0.018-0.004 0-0.008 0-0.012 0h0.001z"></path>
<path fill="#1d1d1b" d="M27.148 25.53c-0.005-0-0.010-0-0.015-0-0.152 0-0.296 0.032-0.426 0.090l0.007-0.003c-0.135 0.080-0.244 0.19-0.323 0.32l-0.002 0.004v-0.343h-0.518v2.617h0.524v-1.44c-0-0.004-0-0.009-0-0.014 0-0.102 0.017-0.199 0.048-0.29l-0.002 0.006c0.029-0.086 0.073-0.159 0.129-0.222l-0.001 0.001c0.053-0.059 0.119-0.105 0.193-0.135l0.004-0.001c0.072-0.029 0.156-0.047 0.244-0.047 0.003 0 0.005 0 0.008 0h-0c0.080 0.001 0.157 0.010 0.231 0.026l-0.007-0.001c0.045 0.009 0.084 0.020 0.121 0.033l-0.007-0.002 0.169-0.546c-0.038-0.013-0.085-0.025-0.134-0.034l-0.006-0.001c-0.068-0.011-0.146-0.018-0.225-0.018-0.004 0-0.008 0-0.012 0h0.001z"></path>
<path fill="#1d1d1b" d="M29.814 24.534v1.381c-0.091-0.116-0.204-0.21-0.333-0.277l-0.006-0.003c-0.133-0.067-0.29-0.106-0.456-0.106-0.010 0-0.020 0-0.029 0l0.001-0c-0.004-0-0.008-0-0.012-0-0.359 0-0.684 0.149-0.916 0.388l-0 0c-0.117 0.122-0.212 0.267-0.276 0.427l-0.003 0.009c-0.064 0.164-0.101 0.354-0.101 0.553s0.037 0.389 0.105 0.564l-0.004-0.011c0.067 0.169 0.161 0.314 0.279 0.436l-0-0c0.232 0.239 0.557 0.388 0.916 0.388 0.004 0 0.009-0 0.013-0h-0.001c0.008 0 0.018 0 0.028 0 0.166 0 0.322-0.038 0.462-0.107l-0.006 0.003c0.135-0.069 0.248-0.163 0.337-0.276l0.002-0.002v0.314h0.571v-3.681zM29.793 27.24c-0.038 0.103-0.093 0.191-0.162 0.266l0-0.001c-0.069 0.074-0.151 0.133-0.244 0.174l-0.005 0.002c-0.096 0.041-0.207 0.064-0.324 0.064-0.119 0-0.233-0.025-0.336-0.069l0.006 0.002c-0.097-0.044-0.179-0.105-0.247-0.18l-0.001-0.001c-0.066-0.075-0.119-0.163-0.154-0.261l-0.002-0.006c-0.035-0.097-0.055-0.209-0.055-0.325s0.020-0.228 0.057-0.332l-0.002 0.007c0.036-0.103 0.089-0.191 0.156-0.267l-0.001 0.001c0.068-0.075 0.15-0.136 0.243-0.178l0.005-0.002c0.098-0.042 0.211-0.067 0.33-0.067 0.117 0 0.228 0.024 0.329 0.066l-0.006-0.002c0.097 0.043 0.18 0.103 0.248 0.176l0 0c0.068 0.074 0.123 0.162 0.159 0.259l0.002 0.006c0.036 0.099 0.057 0.214 0.057 0.333s-0.021 0.234-0.060 0.34l0.002-0.007z"></path>
<path fill="#1d1d1b" d="M20.577 26.302c0.072-0.073 0.158-0.131 0.254-0.17l0.005-0.002c0.094-0.039 0.203-0.061 0.318-0.061 0.003 0 0.005 0 0.008 0h-0c0.003-0 0.006-0 0.009-0 0.125 0 0.245 0.023 0.356 0.064l-0.007-0.002c0.107 0.039 0.199 0.095 0.278 0.166l-0.001-0.001 0.275-0.457c-0.1-0.080-0.215-0.148-0.339-0.199l-0.009-0.003c-0.166-0.067-0.359-0.105-0.561-0.105s-0.395 0.039-0.572 0.109l0.011-0.004c-0.173 0.070-0.321 0.168-0.446 0.29l0-0c-0.123 0.121-0.222 0.266-0.29 0.427l-0.003 0.009c-0.067 0.162-0.107 0.349-0.107 0.546s0.039 0.385 0.11 0.556l-0.004-0.010c0.072 0.17 0.171 0.314 0.294 0.436l0 0c0.124 0.122 0.272 0.22 0.436 0.286l0.009 0.003c0.166 0.067 0.359 0.105 0.561 0.105s0.395-0.039 0.572-0.109l-0.011 0.004c0.133-0.054 0.248-0.122 0.351-0.205l-0.003 0.002-0.275-0.457c-0.078 0.070-0.17 0.126-0.271 0.163l-0.006 0.002c-0.104 0.039-0.224 0.061-0.349 0.061-0.003 0-0.006 0-0.010-0h0c-0.002 0-0.005 0-0.008 0-0.114 0-0.224-0.023-0.323-0.064l0.006 0.002c-0.101-0.041-0.188-0.099-0.259-0.172l-0-0c-0.072-0.074-0.131-0.162-0.17-0.26l-0.002-0.005c-0.040-0.101-0.063-0.218-0.063-0.34s0.023-0.239 0.065-0.347l-0.002 0.006c0.042-0.103 0.1-0.191 0.172-0.265l-0 0z"></path>
<path fill="#1d1d1b" d="M31.588 27.832c0.001 0 0.001 0 0.002 0 0.038 0 0.074 0.008 0.107 0.022l-0.002-0.001c0.034 0.014 0.063 0.034 0.087 0.057l-0-0c0.024 0.024 0.044 0.052 0.058 0.083l0.001 0.002c0.014 0.031 0.021 0.066 0.021 0.104s-0.008 0.073-0.022 0.105l0.001-0.002c-0.015 0.033-0.034 0.061-0.059 0.085l-0 0c-0.024 0.024-0.053 0.043-0.085 0.057l-0.002 0.001c-0.031 0.013-0.067 0.021-0.105 0.021-0.001 0-0.001 0-0.002 0h0c-0.001 0-0.001 0-0.002 0-0.038 0-0.075-0.008-0.108-0.022l0.002 0.001c-0.034-0.014-0.063-0.034-0.088-0.058l0 0c-0.024-0.024-0.044-0.052-0.058-0.084l-0.001-0.002c-0.013-0.031-0.021-0.066-0.021-0.104s0.008-0.073 0.022-0.105l-0.001 0.002c0.014-0.033 0.034-0.061 0.058-0.085l0-0c0.050-0.049 0.119-0.078 0.194-0.078 0.001 0 0.002 0 0.002 0h-0zM31.588 28.292c0 0 0.001 0 0.001 0 0.027 0 0.052-0.006 0.075-0.016l-0.001 0c0.024-0.010 0.044-0.024 0.061-0.041v0c0.017-0.017 0.031-0.037 0.040-0.060l0-0.001c0.009-0.022 0.015-0.048 0.015-0.075s-0.005-0.053-0.015-0.077l0 0.001c-0.010-0.024-0.024-0.044-0.041-0.061v0c-0.017-0.017-0.037-0.031-0.060-0.041l-0.001-0c-0.022-0.010-0.047-0.015-0.074-0.015-0 0-0.001 0-0.001 0h0c-0 0-0.001 0-0.002 0-0.027 0-0.053 0.006-0.076 0.016l0.001-0c-0.024 0.010-0.044 0.024-0.062 0.041l0-0c-0.017 0.017-0.031 0.037-0.041 0.060l-0 0.001c-0.010 0.022-0.015 0.048-0.015 0.075 0 0.053 0.021 0.102 0.056 0.137v0c0.017 0.017 0.038 0.031 0.060 0.041l0.001 0c0.022 0.010 0.048 0.015 0.075 0.015 0.001 0 0.001 0 0.002 0h-0zM31.604 27.98c0.002-0 0.005-0 0.008-0 0.025 0 0.048 0.008 0.066 0.022l-0-0c0.016 0.013 0.025 0.033 0.025 0.055 0 0.001-0 0.002-0 0.003v-0c0 0.001 0 0.001 0 0.002 0 0.018-0.007 0.033-0.018 0.045l0-0c-0.014 0.013-0.032 0.022-0.052 0.025l-0 0 0.074 0.085h-0.080l-0.066-0.083h-0.008v0.083h-0.067v-0.237zM31.553 28.038v0.043h0.050c0.001 0 0.002 0 0.003 0 0.008 0 0.015-0.002 0.021-0.005l-0 0c0.005-0.003 0.008-0.009 0.008-0.015 0-0.001-0-0.001-0-0.002v0c0-0 0-0.001 0-0.001 0-0.006-0.003-0.012-0.008-0.015l-0-0c-0.006-0.003-0.013-0.005-0.021-0.005-0.001 0-0.002 0-0.003 0h0z"></path>
<path fill="#e20d17" d="M12.237 13.364c0-0.002 0-0.004 0-0.007 0-3.124 1.455-5.908 3.725-7.712l0.020-0.016c-1.665-1.327-3.8-2.13-6.122-2.13-5.448 0-9.864 4.416-9.864 9.864s4.416 9.864 9.864 9.864c2.322 0 4.457-0.802 6.142-2.145l-0.020 0.015c-2.29-1.819-3.745-4.603-3.745-7.727 0-0.002 0-0.005 0-0.007v0z"></path>
<path fill="#ea610a" d="M12.237 13.364c0 0.002 0 0.004 0 0.007 0 3.124 1.455 5.908 3.725 7.712l0.020 0.015c2.29-1.821 3.746-4.608 3.746-7.734s-1.455-5.913-3.725-7.719l-0.020-0.015c-2.29 1.819-3.745 4.603-3.745 7.727 0 0.002 0 0.005 0 0.007v-0z"></path>
<path fill="#f59e00" d="M31.295 18.699v-0.289h-0.117v-0.079h0.32v0.079h-0.117v0.289zM31.914 18.699v-0.255l-0.083 0.22h-0.091l-0.083-0.22v0.255h-0.086v-0.368h0.124l0.091 0.236 0.091-0.236h0.124v0.368z"></path>
<path fill="#f59e00" d="M22.1 3.5c-0.004 0-0.008 0-0.012 0-2.317 0-4.447 0.803-6.126 2.145l0.020-0.015c2.29 1.821 3.746 4.608 3.746 7.734s-1.455 5.913-3.725 7.719l-0.020 0.015c1.665 1.326 3.798 2.128 6.119 2.128 5.447 0 9.863-4.416 9.863-9.863s-4.416-9.863-9.863-9.863c-0 0-0.001 0-0.001 0h0z"></path>
</svg>
