<!-- Generated by IcoMoon.io -->
<svg version="1.1" xmlns="http://www.w3.org/2000/svg" width="37" height="12" viewBox="0 0 37 12">
<title>visa__</title>
<path fill="#1a1f71" d="M14.207 0.233l-4.774 11.645h-3.261l-2.445-9.316c-0.116-0.582-0.233-0.815-0.699-1.048-0.871-0.439-1.882-0.801-2.942-1.032l-0.086-0.016 0.233-0.233h5.124c0.009-0 0.020-0 0.032-0 0.687 0 1.257 0.501 1.365 1.157l0.001 0.008 1.281 6.754 3.028-7.918zM26.783 8.035c0-3.028-4.192-3.261-4.192-4.658 0-0.466 0.349-0.815 1.281-0.932 0.149-0.013 0.322-0.020 0.496-0.020 0.872 0 1.702 0.179 2.456 0.501l-0.041-0.015 0.582-2.445c-0.833-0.294-1.794-0.464-2.794-0.466h-0.001c-3.028 0-5.124 1.63-5.124 3.843 0 1.63 1.514 2.562 2.678 3.144s1.514 0.932 1.514 1.397c0 0.815-0.932 1.164-1.747 1.164-1.143-0.030-2.22-0.284-3.197-0.72l0.053 0.021-0.582 2.562c0.913 0.372 1.973 0.587 3.083 0.587 0.103 0 0.206-0.002 0.309-0.006l-0.015 0c3.144 0.116 5.24-1.514 5.24-3.959zM34.585 11.878h2.795l-2.445-11.645h-2.562c-0.562 0.005-1.047 0.332-1.277 0.807l-0.004 0.009-4.541 10.83h3.144l0.582-1.747h3.843zM31.208 7.802l1.63-4.425 0.932 4.425zM18.515 0.233l-2.445 11.645h-3.028l2.445-11.645z"></path>
</svg>
